<svg width="52" height="15" viewBox="0 0 52 15" fill="none" xmlns="http://www.w3.org/2000/svg">
<path d="M14.7597 14.9179H17.0717C17.246 14.9179 17.3865 14.7789 17.3865 14.6072V8.54808C17.3865 6.64884 18.105 5.97587 20.1334 5.97587H21.4237C21.5571 5.97587 21.6739 5.8917 21.7189 5.76792C22.0992 4.74506 22.7118 3.91283 23.5233 3.3067C23.7635 3.12763 23.6364 2.74927 23.3348 2.74927H20.6017C18.8811 2.74927 17.9266 3.56005 17.3865 5.5777V3.05996C17.3865 2.88832 17.246 2.74927 17.0721 2.74927H14.7593C14.5858 2.74927 14.4453 2.88832 14.4453 3.05996V14.6072C14.4453 14.7789 14.5858 14.9179 14.7593 14.9179H14.7597Z" fill="url(#paint0_linear_19320_19328)"/>
<path d="M10.4929 7.28503C11.824 6.63806 12.4979 5.49224 12.4979 3.87357C12.4979 1.30384 10.7164 0.000412609 7.20307 0H0.31688C0.105452 0 -0.0455072 0.203828 0.0174623 0.403944L2.14174 7.11709C2.17886 7.23386 2.17969 7.3593 2.14424 7.47607L0.0132919 14.5259C-0.0467585 14.7256 0.104201 14.9261 0.314378 14.9261H7.86737C12.4767 14.9261 13.1643 12.3461 13.1643 10.8087C13.1643 8.90122 12.3132 7.77397 10.4925 7.28503H10.4929ZM3.736 2.64317H7.20223C8.70266 2.64317 9.43244 3.2134 9.43244 4.38645C9.43244 5.67627 8.71433 6.25227 7.1034 6.25227H4.68095C4.54417 6.25227 4.42282 6.16397 4.38154 6.034L3.43616 3.04712C3.37278 2.847 3.52415 2.64359 3.736 2.64359V2.64317ZM7.89823 12.2834H3.74017C3.52874 12.2834 3.37778 12.0816 3.43991 11.8819L4.37945 8.84552C4.4199 8.71513 4.54209 8.62601 4.68012 8.62601H7.82484C9.41951 8.62601 10.2285 9.24492 10.2285 10.4658C10.2285 11.6211 9.37906 12.283 7.89823 12.283V12.2834Z" fill="url(#paint1_linear_19320_19328)"/>
<path d="M35.4449 8.42548H39.2606C39.3344 8.42548 39.3999 8.37721 39.4207 8.30706L39.6993 7.38612C39.7164 7.32712 39.7164 7.26481 39.6976 7.20705L39.4011 6.26878C39.3794 6.20028 39.3148 6.15283 39.241 6.15283H35.4449C35.2718 6.15283 35.1309 6.29229 35.1309 6.46435V8.11479C35.1309 8.28602 35.2714 8.42548 35.4449 8.42548Z" fill="url(#paint2_linear_19320_19328)"/>
<path d="M28.3953 2.66968H28.3937C24.6576 2.66968 22.3369 5.08839 22.3369 8.98095C22.3369 12.8735 24.6584 15.0001 28.3945 15.0001C30.837 15.0001 32.5513 14.0222 33.4087 12.1593C33.4888 11.9864 33.3924 11.7826 33.2077 11.7306L31.1747 11.1608C31.0363 11.1216 30.8916 11.1826 30.8174 11.3052C30.4366 11.9381 29.7648 12.4316 28.4199 12.4316C26.6209 12.4316 25.5713 11.5552 25.2981 9.82597H33.7769L33.7873 9.69971C33.8365 9.0907 33.837 8.61992 33.837 8.16605V8.15078C33.837 4.7187 31.8028 2.6705 28.3957 2.6705L28.3953 2.66968ZM25.3282 7.59912C25.6393 5.98334 26.6451 5.16431 28.3211 5.16431C29.9971 5.16431 30.8958 5.96106 31.0788 7.59912H25.3278H25.3282Z" fill="url(#paint3_linear_19320_19328)"/>
<path d="M49.3274 7.28503C50.6589 6.63806 51.3324 5.49224 51.3324 3.87357C51.3324 1.30384 49.5513 0.000412609 46.0376 0H39.1414C38.9349 0 38.7873 0.198877 38.8494 0.393628L40.9762 7.11669C41.0138 7.23345 41.0146 7.35888 40.9787 7.47565L38.8461 14.5309C38.7869 14.7277 38.9358 14.9257 39.1439 14.9257H46.7023C51.312 14.9257 52.0001 12.3457 52.0001 10.8083C52.0001 8.90081 51.1481 7.77356 49.3274 7.28462V7.28503ZM42.5709 2.64317H46.0367C47.5371 2.64317 48.2669 3.2134 48.2669 4.38645C48.2669 5.67627 47.5488 6.25227 45.9379 6.25227H43.5163C43.3787 6.25227 43.2577 6.16397 43.216 6.034L42.2715 3.04712C42.2081 2.847 42.3591 2.64359 42.5713 2.64359L42.5709 2.64317ZM46.7331 12.2834H42.5742C42.3632 12.2834 42.2127 12.0816 42.274 11.8819L43.2139 8.84552C43.254 8.71513 43.3762 8.62601 43.5138 8.62601H46.6585C48.2532 8.62601 49.0622 9.24492 49.0622 10.4658C49.0622 11.6211 48.2127 12.283 46.7327 12.283L46.7331 12.2834Z" fill="url(#paint4_linear_19320_19328)"/>
<defs>
<linearGradient id="paint0_linear_19320_19328" x1="0.262775" y1="8.94303" x2="51.0451" y2="8.94303" gradientUnits="userSpaceOnUse">
<stop stop-color="#00C4FF"/>
<stop offset="0.36" stop-color="#00DAC6"/>
<stop offset="0.79" stop-color="#00F486"/>
<stop offset="1" stop-color="#00FF6D"/>
</linearGradient>
<linearGradient id="paint1_linear_19320_19328" x1="0.336062" y1="7.46327" x2="51.1074" y2="7.46327" gradientUnits="userSpaceOnUse">
<stop stop-color="#00C4FF"/>
<stop offset="0.36" stop-color="#00DAC6"/>
<stop offset="0.79" stop-color="#00F486"/>
<stop offset="1" stop-color="#00FF6D"/>
</linearGradient>
<linearGradient id="paint2_linear_19320_19328" x1="0.263062" y1="7.39077" x2="51.0454" y2="7.39077" gradientUnits="userSpaceOnUse">
<stop stop-color="#00C4FF"/>
<stop offset="0.36" stop-color="#00DAC6"/>
<stop offset="0.79" stop-color="#00F486"/>
<stop offset="1" stop-color="#00FF6D"/>
</linearGradient>
<linearGradient id="paint3_linear_19320_19328" x1="0.336393" y1="8.83489" x2="51.1077" y2="8.83489" gradientUnits="userSpaceOnUse">
<stop stop-color="#00C4FF"/>
<stop offset="0.36" stop-color="#00DAC6"/>
<stop offset="0.79" stop-color="#00F486"/>
<stop offset="1" stop-color="#00FF6D"/>
</linearGradient>
<linearGradient id="paint4_linear_19320_19328" x1="0.336345" y1="7.46327" x2="51.1076" y2="7.46327" gradientUnits="userSpaceOnUse">
<stop stop-color="#00C4FF"/>
<stop offset="0.36" stop-color="#00DAC6"/>
<stop offset="0.79" stop-color="#00F486"/>
<stop offset="1" stop-color="#00FF6D"/>
</linearGradient>
</defs>
</svg>
