<svg width="88" height="89" viewBox="0 0 88 89" fill="none" xmlns="http://www.w3.org/2000/svg">
<path d="M37.4859 29.2323C37.4859 31.4667 37.4859 33.6323 38.1906 35.6605C30.7828 44.3573 11.2234 67.337 9.40156 69.0901C9.03947 69.415 8.74981 69.8125 8.55141 70.2566C8.35301 70.7008 8.25031 71.1818 8.25 71.6683C8.25 73.1292 9.14375 74.5386 9.9 75.3292C11.0344 76.5151 15.8812 81.0011 16.775 80.1417C19.4219 77.5636 19.9547 76.8761 21.0375 75.8104C22.6703 74.212 20.8656 70.9464 21.4328 69.6229C22 68.2995 22.6016 68.0417 23.5812 67.8354C24.5609 67.6292 26.2969 68.3339 27.6547 68.3511C29.0812 68.3683 29.8547 67.7667 30.9203 66.7698C31.7797 65.9792 32.3984 65.2401 32.4156 64.0886C32.45 62.5417 30.2156 60.4964 31.8828 58.8636C33.55 57.2308 35.9562 59.9292 37.7266 59.7229C39.4969 59.5167 41.6453 57.0589 41.8688 56.0104C42.0922 54.962 39.8578 52.2636 40.2016 50.7339C40.3219 50.2183 41.3703 49.0151 42.1609 48.8433C42.9516 48.6714 46.4578 50.0292 47.2484 49.8573C48.2109 49.6511 49.3281 48.637 50.2391 48.0698C52.9031 49.2214 55.3266 49.6855 58.4375 49.6855C70.2109 49.6855 79.75 40.5073 79.75 29.198C79.75 17.8886 70.2109 8.75 58.4375 8.75C46.6641 8.75 37.4859 17.923 37.4859 29.2323ZM68.75 25.25C68.75 26.3378 68.4274 27.4012 67.8231 28.3056C67.2187 29.2101 66.3598 29.915 65.3548 30.3313C64.3498 30.7476 63.2439 30.8565 62.177 30.6443C61.1101 30.4321 60.1301 29.9083 59.3609 29.1391C58.5917 28.3699 58.0679 27.3899 57.8557 26.323C57.6435 25.2561 57.7524 24.1502 58.1687 23.1452C58.5849 22.1402 59.2899 21.2813 60.1944 20.6769C61.0988 20.0726 62.1622 19.75 63.25 19.75C64.7087 19.75 66.1076 20.3295 67.1391 21.3609C68.1705 22.3924 68.75 23.7913 68.75 25.25Z" stroke="#200020" stroke-width="3" stroke-linejoin="round"/>
<path d="M9.40156 69.0901C9.03947 69.415 8.74981 69.8125 8.55141 70.2566C8.35301 70.7008 8.25031 71.1818 8.25 71.6683C8.25 73.1292 9.14375 74.5386 9.9 75.3292C11.0344 76.5151 15.8812 81.0011 16.775 80.1417C19.4219 77.5636 19.9547 76.8761 21.0375 75.8104C22.6703 74.212 20.8656 70.9464 21.4328 69.6229C22 68.2995 22.6016 68.0417 23.5812 67.8354C24.5609 67.6292 26.2969 68.3339 27.6547 68.3511C29.0812 68.3683 29.8547 67.7667 30.9203 66.7698C31.7797 65.9792 32.3984 65.2401 32.4156 64.0886C32.45 62.5417 30.2156 60.4964 31.8828 58.8636C33.55 57.2308 35.9562 59.9292 37.7266 59.7229C39.4969 59.5167 41.6453 57.0589 41.8688 56.0105C42.0922 54.962 39.8578 52.2636 40.2016 50.7339C40.3219 50.2183 41.3703 49.0151 42.1609 48.8433C42.9516 48.6714 46.4578 50.0292 47.2484 49.8573C48.2109 49.6511 49.3281 48.637 50.2391 48.0698C52.9031 49.2214 55.3266 49.6855 58.4375 49.6855M68.75 25.25C68.75 26.3378 68.4274 27.4012 67.8231 28.3056C67.2187 29.2101 66.3598 29.9151 65.3548 30.3313C64.3498 30.7476 63.2439 30.8565 62.177 30.6443C61.1101 30.4321 60.1301 29.9083 59.3609 29.1391C58.5917 28.3699 58.0679 27.3899 57.8557 26.323C57.6435 25.2561 57.7524 24.1502 58.1687 23.1452C58.5849 22.1402 59.2899 21.2813 60.1944 20.6769C61.0988 20.0726 62.1622 19.75 63.25 19.75C64.7087 19.75 66.1076 20.3295 67.1391 21.3609C68.1705 22.3924 68.75 23.7913 68.75 25.25Z" stroke="#DA0081" stroke-width="3" stroke-linejoin="round"/>
</svg>
