<svg width="49" height="49" viewBox="0 0 49 49" fill="none" xmlns="http://www.w3.org/2000/svg">
<g clip-path="url(#clip0_6325_3674)">
<rect x="0.11499" y="0.129395" width="48.6893" height="48.0581" rx="4.05745" fill="white"/>
<g clip-path="url(#clip1_6325_3674)">
<path d="M32.9706 35.2142H29.1834C28.9237 35.2142 28.7035 35.4034 28.664 35.658L27.1332 45.3687C27.1023 45.5596 27.2519 45.7333 27.4445 45.7333H29.388C29.5686 45.7333 29.7234 45.6009 29.7509 45.422L30.1844 42.6684C30.2256 42.4121 30.4458 42.2246 30.7038 42.2246H31.9026C34.3965 42.2246 35.8378 41.0173 36.2127 38.6248C36.3813 37.5791 36.2196 36.7553 35.7294 36.1808C35.1911 35.5479 34.2365 35.2142 32.9689 35.2142M33.4058 38.7607C33.1994 40.1195 32.1606 40.1195 31.1561 40.1195H30.5851L30.9859 37.5808C31.0099 37.4278 31.1424 37.3143 31.2972 37.3143H31.5586C32.2431 37.3143 32.8881 37.3143 33.22 37.7047C33.4195 37.9369 33.4797 38.2826 33.4041 38.7607" fill="#009CDE"/>
<path d="M5.95751 35.2142H2.17024C1.91053 35.2142 1.69038 35.4034 1.65082 35.658L0.118367 45.3687C0.0874081 45.5596 0.235322 45.7333 0.429673 45.7333H2.23731C2.49702 45.7333 2.71717 45.5441 2.75673 45.2896L3.16951 42.6701C3.20907 42.4138 3.43094 42.2264 3.68893 42.2264H4.88772C7.38161 42.2264 8.82291 41.019 9.19785 38.6266C9.3664 37.5808 9.20473 36.757 8.71455 36.1825C8.17621 35.5496 7.22166 35.216 5.95407 35.216M6.39093 38.7624C6.18454 40.1212 5.14571 40.1212 4.14127 40.1212H3.57026L3.971 37.5826C3.99508 37.4295 4.12751 37.316 4.2823 37.316H4.54373C5.22826 37.316 5.87323 37.316 6.20518 37.7064C6.40469 37.9386 6.46489 38.2843 6.38921 38.7624" fill="#003087"/>
<path d="M17.2781 38.7178H15.4653C15.3106 38.7178 15.1781 38.8313 15.154 38.9843L15.0749 39.4917L14.9476 39.3077C14.5555 38.7384 13.6801 38.5475 12.8046 38.5475C10.8009 38.5475 9.08959 40.0662 8.75592 42.1954C8.58221 43.2584 8.82816 44.2731 9.43013 44.9817C9.98395 45.6336 10.7734 45.9036 11.7142 45.9036C13.3292 45.9036 14.2253 44.8665 14.2253 44.8665L14.1444 45.3704C14.1135 45.5631 14.2614 45.7351 14.4558 45.7351H16.0897C16.3494 45.7351 16.5695 45.5459 16.6091 45.2913L17.5895 39.0824C17.6204 38.8915 17.4725 38.7178 17.2781 38.7178ZM14.7516 42.247C14.5761 43.2842 13.754 43.979 12.7049 43.979C12.1786 43.979 11.7572 43.8105 11.4872 43.4888C11.2189 43.1706 11.1174 42.7183 11.2034 42.2144C11.3668 41.1876 12.2027 40.4686 13.2363 40.4686C13.7506 40.4686 14.1685 40.6389 14.4454 40.9623C14.7241 41.2873 14.8324 41.7431 14.7533 42.2453" fill="#003087"/>
<path d="M44.2894 38.7178H42.4766C42.3218 38.7178 42.1894 38.8313 42.1653 38.9843L42.0862 39.4917L41.9589 39.3077C41.5667 38.7384 40.6913 38.5475 39.8159 38.5475C37.8121 38.5475 36.1008 40.0662 35.7672 42.1954C35.5934 43.2584 35.8394 44.2731 36.4414 44.9817C36.9952 45.6336 37.7846 45.9036 38.7254 45.9036C40.3404 45.9036 41.2365 44.8665 41.2365 44.8665L41.1557 45.3704C41.1247 45.5631 41.2726 45.7351 41.467 45.7351H43.1009C43.3606 45.7351 43.5808 45.5459 43.6203 45.2913L44.6007 39.0824C44.6316 38.8915 44.4837 38.7178 44.2894 38.7178ZM41.7628 42.247C41.5874 43.2842 40.7653 43.979 39.7161 43.979C39.1898 43.979 38.7684 43.8105 38.4984 43.4888C38.2301 43.1706 38.1286 42.7183 38.2146 42.2144C38.378 41.1876 39.2139 40.4686 40.2476 40.4686C40.7618 40.4686 41.1798 40.6389 41.4567 40.9623C41.7353 41.2873 41.8436 41.7431 41.7645 42.2453" fill="#009CDE"/>
<path d="M26.9371 38.7178H25.114C24.9403 38.7178 24.7769 38.8038 24.6789 38.9482L22.1643 42.6512L21.098 39.0927C21.0309 38.8691 20.8262 38.7178 20.594 38.7178H18.8019C18.5852 38.7178 18.4338 38.931 18.5026 39.1357L20.5098 45.0265L18.6213 47.6906C18.4734 47.9005 18.6213 48.1894 18.8793 48.1894H20.7007C20.8727 48.1894 21.0343 48.1051 21.1341 47.9624L27.1968 39.2131C27.3413 39.0033 27.1917 38.7178 26.9371 38.7178Z" fill="#003087"/>
<path d="M46.4274 35.4808L44.8726 45.3704C44.8434 45.5613 44.9913 45.735 45.1839 45.735H46.7473C47.007 45.735 47.2272 45.5458 47.2667 45.2913L48.7992 35.5806C48.8301 35.3897 48.6822 35.2159 48.4879 35.2159H46.7387C46.5839 35.2159 46.4515 35.3295 46.4274 35.4825" fill="#009CDE"/>
<path d="M36.5068 8.15112C36.8921 5.69507 36.5034 4.0233 35.1756 2.50977C33.7137 0.843163 31.0719 0.129395 27.6905 0.129395H17.8783C17.1869 0.129395 16.5987 0.631612 16.4921 1.31442L12.4055 27.2234C12.3247 27.7342 12.7203 28.1968 13.238 28.1968H19.2956L18.8776 30.849C18.8071 31.2961 19.1528 31.7003 19.6051 31.7003H24.7116C25.3153 31.7003 25.8313 31.26 25.9241 30.6632L25.974 30.4035L26.9355 24.3047L26.9974 23.9675C27.092 23.3707 27.6062 22.9304 28.2099 22.9304H28.9736C33.9201 22.9304 37.7933 20.9198 38.925 15.1082C39.398 12.6797 39.1538 10.6519 37.9034 9.22779C37.525 8.79609 37.0538 8.44007 36.5051 8.1494" fill="#009CDE"/>
<path d="M36.5068 8.15112C36.8921 5.69507 36.5034 4.0233 35.1756 2.50977C33.7137 0.843163 31.0719 0.129395 27.6905 0.129395H17.8783C17.1869 0.129395 16.5987 0.631612 16.4921 1.31442L12.4055 27.2234C12.3247 27.7342 12.7203 28.1968 13.238 28.1968H19.2956L20.8177 18.5481L20.7712 18.8508C20.8796 18.168 21.4627 17.6657 22.1523 17.6657H25.0315C30.6866 17.6657 35.1137 15.3679 36.4071 8.72386C36.4449 8.52779 36.4776 8.33687 36.5068 8.1494" fill="#012169"/>
<path d="M22.4516 8.1838C22.517 7.77274 22.7801 7.43735 23.1344 7.26708C23.2961 7.18968 23.475 7.14669 23.6642 7.14669H31.3557C32.2672 7.14669 33.1169 7.20688 33.8925 7.33072C34.1144 7.36684 34.3311 7.40811 34.541 7.45455C34.7508 7.50099 34.9537 7.55259 35.1515 7.61107C35.2496 7.6403 35.3476 7.66954 35.4422 7.70222C35.824 7.8295 36.1783 7.97913 36.5051 8.15112C36.8904 5.69507 36.5017 4.0233 35.1739 2.50977C33.7137 0.843163 31.0719 0.129395 27.6905 0.129395H17.8783C17.1869 0.129395 16.5987 0.631612 16.4921 1.31442L12.4055 27.2251C12.3247 27.7359 12.7203 28.1986 13.238 28.1986H19.2955L20.8177 18.5498L22.4516 8.1838Z" fill="#003087"/>
</g>
</g>
<defs>
<clipPath id="clip0_6325_3674">
<rect x="0.11499" y="0.129395" width="48.6893" height="48.0581" rx="4.05745" fill="white"/>
</clipPath>
<clipPath id="clip1_6325_3674">
<rect width="48.6893" height="48.0581" fill="white" transform="translate(0.11499 0.129395)"/>
</clipPath>
</defs>
</svg>
