<?xml version="1.0" encoding="UTF-8"?>
<!DOCTYPE svg PUBLIC "-//W3C//DTD SVG 1.1//EN" "http://www.w3.org/Graphics/SVG/1.1/DTD/svg11.dtd">
<svg xmlns="http://www.w3.org/2000/svg" version="1.1" width="225px" height="225px" style="shape-rendering:geometricPrecision; text-rendering:geometricPrecision; image-rendering:optimizeQuality; fill-rule:evenodd; clip-rule:evenodd" xmlns:xlink="http://www.w3.org/1999/xlink">
<g><path style="opacity:1" fill="#ff484c" d="M -0.5,-0.5 C 74.5,-0.5 149.5,-0.5 224.5,-0.5C 224.5,74.5 224.5,149.5 224.5,224.5C 149.5,224.5 74.5,224.5 -0.5,224.5C -0.5,149.5 -0.5,74.5 -0.5,-0.5 Z"/></g>
<g><path style="opacity:1" fill="#cc0000" d="M 0.5,0.5 C 74.8333,0.5 149.167,0.5 223.5,0.5C 223.5,74.8333 223.5,149.167 223.5,223.5C 149.167,223.5 74.8333,223.5 0.5,223.5C 0.5,149.167 0.5,74.8333 0.5,0.5 Z"/></g>
<g><path style="opacity:1" fill="#e30714" d="M 1.5,1.5 C 75.1667,1.5 148.833,1.5 222.5,1.5C 222.5,75.1667 222.5,148.833 222.5,222.5C 148.833,222.5 75.1667,222.5 1.5,222.5C 1.5,148.833 1.5,75.1667 1.5,1.5 Z"/></g>
<g><path style="opacity:1" fill="#cf5d5a" d="M 58.5,144.5 C 62.7147,146.436 67.3814,147.103 72.5,146.5C 67.6946,147.487 62.6946,147.821 57.5,147.5C 57.2627,146.209 57.596,145.209 58.5,144.5 Z"/></g>
<g><path style="opacity:1" fill="#dd6766" d="M 166.5,134.5 C 167.482,137.962 167.815,141.629 167.5,145.5C 164.753,145.813 162.086,145.48 159.5,144.5C 159.624,143.893 159.957,143.56 160.5,143.5C 162.265,144.461 164.265,144.795 166.5,144.5C 166.5,141.167 166.5,137.833 166.5,134.5 Z"/></g>
<g><path style="opacity:1" fill="#ca5659" d="M 149.5,133.5 C 149.833,133.5 150.167,133.5 150.5,133.5C 150.5,137.167 150.5,140.833 150.5,144.5C 152.5,144.5 154.5,144.5 156.5,144.5C 154.167,145.833 151.833,145.833 149.5,144.5C 149.5,140.833 149.5,137.167 149.5,133.5 Z"/></g>
<g><path style="opacity:1" fill="#f8c0c0" d="M 132.5,141.5 C 132.833,141.5 133.167,141.5 133.5,141.5C 135.167,141.5 136.833,141.5 138.5,141.5C 139.338,141.842 139.672,142.508 139.5,143.5C 135.366,144.485 131.032,144.818 126.5,144.5C 126.5,144.167 126.5,143.833 126.5,143.5C 130.514,143.666 134.514,143.499 138.5,143C 136.292,142.809 134.292,142.309 132.5,141.5 Z"/></g>
<g><path style="opacity:1" fill="#ffc2c0" d="M 75.5,129.5 C 76.4861,133.97 76.8195,138.637 76.5,143.5C 78.1667,143.5 79.8333,143.5 81.5,143.5C 81.5,141.5 81.5,139.5 81.5,137.5C 84.8333,137.5 88.1667,137.5 91.5,137.5C 91.5,137.833 91.5,138.167 91.5,138.5C 91.1667,138.5 90.8333,138.5 90.5,138.5C 87.8333,138.5 85.1667,138.5 82.5,138.5C 82.5,140.5 82.5,142.5 82.5,144.5C 80.1667,144.5 77.8333,144.5 75.5,144.5C 75.5,139.5 75.5,134.5 75.5,129.5 Z"/></g>
<g><path style="opacity:1" fill="#f9d3d3" d="M 184.5,133.5 C 185.482,136.962 185.815,140.629 185.5,144.5C 180.156,144.666 174.823,144.499 169.5,144C 168.186,141.395 168.186,138.895 169.5,136.5C 169.5,138.5 169.5,140.5 169.5,142.5C 170.873,142.657 172.207,142.49 173.5,142C 173.167,141.667 172.833,141.333 172.5,141C 173.52,139.444 174.853,138.278 176.5,137.5C 177.416,137.543 178.083,137.876 178.5,138.5C 179.451,139.919 179.784,141.585 179.5,143.5C 181.167,143.5 182.833,143.5 184.5,143.5C 184.5,140.167 184.5,136.833 184.5,133.5 Z"/></g>
<g><path style="opacity:1" fill="#e10712" d="M 69.5,130.5 C 70.4822,131.141 71.4822,131.807 72.5,132.5C 73.487,135.768 73.8204,139.102 73.5,142.5C 71.8561,142.714 70.3561,142.38 69,141.5C 68.5604,139.134 68.0604,136.801 67.5,134.5C 68.6737,133.486 69.3404,132.153 69.5,130.5 Z"/></g>
<g><path style="opacity:1" fill="#ffeeed" d="M 184.5,133.5 C 184.5,136.833 184.5,140.167 184.5,143.5C 182.833,143.5 181.167,143.5 179.5,143.5C 179.784,141.585 179.451,139.919 178.5,138.5C 178.083,137.876 177.416,137.543 176.5,137.5C 174.853,138.278 173.52,139.444 172.5,141C 172.833,141.333 173.167,141.667 173.5,142C 172.207,142.49 170.873,142.657 169.5,142.5C 169.5,140.5 169.5,138.5 169.5,136.5C 181.34,135.191 181.34,134.524 169.5,134.5C 169.5,133.5 169.5,132.5 169.5,131.5C 173.846,131.334 178.179,131.501 182.5,132C 183.416,132.278 184.082,132.778 184.5,133.5 Z"/></g>
<g><path style="opacity:1" fill="#b51f1a" d="M 178.5,138.5 C 178.5,139.5 178.5,140.5 178.5,141.5C 177.5,141.5 176.5,141.5 175.5,141.5C 175.5,140.5 175.5,139.5 175.5,138.5C 176.5,138.5 177.5,138.5 178.5,138.5 Z"/></g>
<g><path style="opacity:1" fill="#fef3f2" d="M 164.5,132.5 C 165.5,132.833 166.167,133.5 166.5,134.5C 166.5,137.833 166.5,141.167 166.5,144.5C 164.265,144.795 162.265,144.461 160.5,143.5C 160.5,140.5 160.5,137.5 160.5,134.5C 159.167,134.5 157.833,134.5 156.5,134.5C 156.5,137.833 156.5,141.167 156.5,144.5C 154.5,144.5 152.5,144.5 150.5,144.5C 150.5,140.833 150.5,137.167 150.5,133.5C 154.97,132.514 159.637,132.181 164.5,132.5 Z"/></g>
<g><path style="opacity:1" fill="#fce8e8" d="M 132.5,141.5 C 134.292,142.309 136.292,142.809 138.5,143C 134.514,143.499 130.514,143.666 126.5,143.5C 125.213,139.935 125.213,136.268 126.5,132.5C 130.735,131.564 135.069,131.231 139.5,131.5C 139.5,132.5 139.5,133.5 139.5,134.5C 137.167,134.5 134.833,134.5 132.5,134.5C 132.5,136.833 132.5,139.167 132.5,141.5 Z"/></g>
<g><path style="opacity:1" fill="#d62a26" d="M 73.5,124.5 C 72.3702,126.315 71.7036,128.315 71.5,130.5C 72.5,130.5 73.5,130.5 74.5,130.5C 74.2627,129.209 74.596,128.209 75.5,127.5C 75.5,128.167 75.5,128.833 75.5,129.5C 75.5,134.5 75.5,139.5 75.5,144.5C 77.8333,144.5 80.1667,144.5 82.5,144.5C 82.5,142.5 82.5,140.5 82.5,138.5C 85.1667,138.5 87.8333,138.5 90.5,138.5C 88.3926,139.468 86.0593,139.802 83.5,139.5C 83.5,141.5 83.5,143.5 83.5,145.5C 79.9703,146.011 76.8037,145.344 74,143.5C 73.7679,144.737 73.2679,145.737 72.5,146.5C 72.4226,145.25 71.756,144.417 70.5,144C 68.8659,143.506 67.1992,143.34 65.5,143.5C 65.8583,140.311 66.525,137.311 67.5,134.5C 68.0604,136.801 68.5604,139.134 69,141.5C 70.3561,142.38 71.8561,142.714 73.5,142.5C 73.8204,139.102 73.487,135.768 72.5,132.5C 71.4822,131.807 70.4822,131.141 69.5,130.5C 69.8925,128.716 70.5592,127.05 71.5,125.5C 72.1667,125.167 72.8333,124.833 73.5,124.5 Z"/></g>
<g><path style="opacity:1" fill="#e87775" d="M 141.5,127.5 C 143.607,126.532 145.941,126.198 148.5,126.5C 148.5,132.5 148.5,138.5 148.5,144.5C 146.167,145.833 143.833,145.833 141.5,144.5C 143.735,144.795 145.735,144.461 147.5,143.5C 147.5,139.833 147.5,136.167 147.5,132.5C 145.735,131.539 143.735,131.205 141.5,131.5C 141.5,131.167 141.5,130.833 141.5,130.5C 143.5,130.5 145.5,130.5 147.5,130.5C 147.5,129.5 147.5,128.5 147.5,127.5C 145.5,127.5 143.5,127.5 141.5,127.5 Z"/></g>
<g><path style="opacity:1" fill="#f4a7a7" d="M 164.5,131.5 C 164.5,131.833 164.5,132.167 164.5,132.5C 159.637,132.181 154.97,132.514 150.5,133.5C 150.167,133.5 149.833,133.5 149.5,133.5C 154.056,131.558 159.056,130.892 164.5,131.5 Z"/></g>
<g><path style="opacity:1" fill="#db6a6a" d="M 193.5,127.5 C 194.49,133.31 194.823,139.31 194.5,145.5C 191.833,145.5 189.167,145.5 186.5,145.5C 186.5,139.167 186.5,132.833 186.5,126.5C 189.059,126.198 191.393,126.532 193.5,127.5 Z"/></g>
<g><path style="opacity:1" fill="#c11e19" d="M 93.5,129.5 C 103.423,130.309 113.423,130.809 123.5,131C 124.244,132.039 125.244,132.539 126.5,132.5C 125.213,136.268 125.213,139.935 126.5,143.5C 126.5,143.833 126.5,144.167 126.5,144.5C 125.5,144.5 124.5,144.5 123.5,144.5C 126.658,131.765 121.992,127.765 109.5,132.5C 109.167,132.5 108.833,132.5 108.5,132.5C 106.059,131.244 103.726,131.244 101.5,132.5C 99.283,131.631 96.9496,131.298 94.5,131.5C 94.1818,136.032 94.5151,140.366 95.5,144.5C 97.5,144.5 99.5,144.5 101.5,144.5C 99.0521,145.473 96.3854,145.806 93.5,145.5C 94.0102,142.612 93.3435,140.279 91.5,138.5C 91.5,138.167 91.5,137.833 91.5,137.5C 92.1174,137.389 92.6174,137.056 93,136.5C 93.4966,134.19 93.6633,131.857 93.5,129.5 Z"/></g>
<g><path style="opacity:1" fill="#f9cdcc" d="M 109.5,132.5 C 121.992,127.765 126.658,131.765 123.5,144.5C 118.305,144.821 113.305,144.487 108.5,143.5C 110.167,143.5 111.833,143.5 113.5,143.5C 113.19,140.287 113.523,137.287 114.5,134.5C 114.5,136.833 114.5,139.167 114.5,141.5C 115.5,141.5 116.5,141.5 117.5,141.5C 117.5,139.167 117.5,136.833 117.5,134.5C 118.254,137.023 118.92,139.689 119.5,142.5C 120.325,143.386 121.325,143.719 122.5,143.5C 122.82,140.102 122.487,136.768 121.5,133.5C 117.571,132.567 113.571,132.234 109.5,132.5 Z"/></g>
<g><path style="opacity:1" fill="#f9a7a7" d="M 101.5,132.5 C 103.726,131.244 106.059,131.244 108.5,132.5C 108.5,136.167 108.5,139.833 108.5,143.5C 107.935,140.695 106.935,138.028 105.5,135.5C 106.404,134.791 106.737,133.791 106.5,132.5C 104.833,132.5 103.167,132.5 101.5,132.5 Z"/></g>
<g><path style="opacity:1" fill="#fdaba9" d="M 101.5,132.5 C 99.7411,132.954 97.7411,132.954 95.5,132.5C 95.5,136.5 95.5,140.5 95.5,144.5C 94.5151,140.366 94.1818,136.032 94.5,131.5C 96.9496,131.298 99.283,131.631 101.5,132.5 Z"/></g>
<g><path style="opacity:1" fill="#fefbfb" d="M 108.5,132.5 C 108.833,132.5 109.167,132.5 109.5,132.5C 113.571,132.234 117.571,132.567 121.5,133.5C 122.487,136.768 122.82,140.102 122.5,143.5C 121.325,143.719 120.325,143.386 119.5,142.5C 118.92,139.689 118.254,137.023 117.5,134.5C 116.5,134.5 115.5,134.5 114.5,134.5C 113.523,137.287 113.19,140.287 113.5,143.5C 111.833,143.5 110.167,143.5 108.5,143.5C 108.5,139.833 108.5,136.167 108.5,132.5 Z"/></g>
<g><path style="opacity:1" fill="#c90004" d="M 114.5,134.5 C 115.5,134.5 116.5,134.5 117.5,134.5C 117.5,136.833 117.5,139.167 117.5,141.5C 116.5,141.5 115.5,141.5 114.5,141.5C 114.5,139.167 114.5,136.833 114.5,134.5 Z"/></g>
<g><path style="opacity:1" fill="#fff4f3" d="M 101.5,132.5 C 103.167,132.5 104.833,132.5 106.5,132.5C 106.737,133.791 106.404,134.791 105.5,135.5C 104.167,135.5 102.833,135.5 101.5,135.5C 101.5,138.5 101.5,141.5 101.5,144.5C 99.5,144.5 97.5,144.5 95.5,144.5C 95.5,140.5 95.5,136.5 95.5,132.5C 97.7411,132.954 99.7411,132.954 101.5,132.5 Z"/></g>
<g><path style="opacity:1" fill="#fff7f5" d="M 193.5,127.5 C 193.5,133.167 193.5,138.833 193.5,144.5C 191.5,144.5 189.5,144.5 187.5,144.5C 187.5,138.833 187.5,133.167 187.5,127.5C 189.5,127.5 191.5,127.5 193.5,127.5 Z"/></g>
<g><path style="opacity:1" fill="#fef1f1" d="M 75.5,127.5 C 81.7921,126.947 87.7921,127.614 93.5,129.5C 93.6633,131.857 93.4966,134.19 93,136.5C 92.6174,137.056 92.1174,137.389 91.5,137.5C 88.1667,137.5 84.8333,137.5 81.5,137.5C 81.5,139.5 81.5,141.5 81.5,143.5C 79.8333,143.5 78.1667,143.5 76.5,143.5C 76.8195,138.637 76.4861,133.97 75.5,129.5C 75.5,128.833 75.5,128.167 75.5,127.5 Z"/></g>
<g><path style="opacity:1" fill="#c02f2b" d="M 82.5,130.5 C 83.8333,130.5 85.1667,130.5 86.5,130.5C 86.5,132.167 86.5,133.833 86.5,135.5C 85.1667,135.5 83.8333,135.5 82.5,135.5C 82.5,133.833 82.5,132.167 82.5,130.5 Z"/></g>
<g><path style="opacity:1" fill="#fff1f1" d="M 147.5,116.5 C 148.167,116.5 148.5,116.833 148.5,117.5C 148.5,119.833 148.5,122.167 148.5,124.5C 147.5,124.5 146.5,124.5 145.5,124.5C 144.964,121.302 145.631,118.635 147.5,116.5 Z"/></g>
<g><path style="opacity:1" fill="#f6d4d4" d="M 142.5,116.5 C 143.403,119.391 143.736,122.391 143.5,125.5C 140.833,125.5 138.167,125.5 135.5,125.5C 135.5,122.5 135.5,119.5 135.5,116.5C 137.833,116.5 140.167,116.5 142.5,116.5 Z"/></g>
<g><path style="opacity:1" fill="#fcdfe0" d="M 165.5,116.5 C 166.828,117.91 166.495,119.076 164.5,120C 167.032,120.612 167.865,122.112 167,124.5C 164.395,125.814 161.895,125.814 159.5,124.5C 159.47,123.503 159.97,122.836 161,122.5C 162.101,123.291 162.934,123.291 163.5,122.5C 160.658,121.996 159.325,120.329 159.5,117.5C 161.265,116.539 163.265,116.205 165.5,116.5 Z"/></g>
<g><path style="opacity:1" fill="#dd9494" d="M 147.5,116.5 C 145.631,118.635 144.964,121.302 145.5,124.5C 146.5,124.5 147.5,124.5 148.5,124.5C 148.5,122.167 148.5,119.833 148.5,117.5C 148.833,117.5 149.167,117.5 149.5,117.5C 149.577,118.75 150.244,119.583 151.5,120C 150.944,120.383 150.611,120.883 150.5,121.5C 149.596,122.209 149.263,123.209 149.5,124.5C 152.167,124.5 154.833,124.5 157.5,124.5C 157.5,122.167 157.5,119.833 157.5,117.5C 158.167,117.5 158.833,117.5 159.5,117.5C 159.325,120.329 160.658,121.996 163.5,122.5C 162.934,123.291 162.101,123.291 161,122.5C 159.97,122.836 159.47,123.503 159.5,124.5C 157.621,125.341 155.621,125.675 153.5,125.5C 150.167,125.5 146.833,125.5 143.5,125.5C 143.736,122.391 143.403,119.391 142.5,116.5C 144.334,115.506 146.001,115.506 147.5,116.5 Z"/></g>
<g><path style="opacity:1" fill="#fff3f3" d="M 156.5,116.5 C 157.167,116.5 157.5,116.833 157.5,117.5C 157.5,119.833 157.5,122.167 157.5,124.5C 154.833,124.5 152.167,124.5 149.5,124.5C 149.263,123.209 149.596,122.209 150.5,121.5C 151.735,121.721 152.735,122.388 153.5,123.5C 154.769,121.305 154.769,119.139 153.5,117C 154.448,116.517 155.448,116.351 156.5,116.5 Z"/></g>
<g><path style="opacity:1" fill="#edc2c1" d="M 156.5,116.5 C 155.448,116.351 154.448,116.517 153.5,117C 154.769,119.139 154.769,121.305 153.5,123.5C 152.735,122.388 151.735,121.721 150.5,121.5C 150.611,120.883 150.944,120.383 151.5,120C 150.244,119.583 149.577,118.75 149.5,117.5C 151.696,115.455 154.03,115.122 156.5,116.5 Z"/></g>
<g><path style="opacity:1" fill="#db1416" d="M 93.5,98.5 C 95.6217,106.084 95.955,113.751 94.5,121.5C 94.2222,123.346 94.8888,124.68 96.5,125.5C 98.1112,124.68 98.7778,123.346 98.5,121.5C 99.2216,121.082 99.7216,120.416 100,119.5C 100.21,121.058 100.71,122.391 101.5,123.5C 103.279,125.344 105.612,126.01 108.5,125.5C 109.5,125.5 110.5,125.5 111.5,125.5C 112.5,125.5 113.5,125.5 114.5,125.5C 115.167,125.5 115.833,125.5 116.5,125.5C 117.5,125.5 118.5,125.5 119.5,125.5C 121.95,125.702 124.283,125.369 126.5,124.5C 133.492,127.346 135.992,125.013 134,117.5C 133.283,116.956 132.783,116.289 132.5,115.5C 137.954,114.958 143.288,113.625 148.5,111.5C 149.749,113.475 151.249,113.809 153,112.5C 156.978,114.75 161.145,116.083 165.5,116.5C 163.265,116.205 161.265,116.539 159.5,117.5C 158.833,117.5 158.167,117.5 157.5,117.5C 157.5,116.833 157.167,116.5 156.5,116.5C 154.03,115.122 151.696,115.455 149.5,117.5C 149.167,117.5 148.833,117.5 148.5,117.5C 148.5,116.833 148.167,116.5 147.5,116.5C 146.001,115.506 144.334,115.506 142.5,116.5C 140.167,116.5 137.833,116.5 135.5,116.5C 135.5,119.5 135.5,122.5 135.5,125.5C 138.167,125.5 140.833,125.5 143.5,125.5C 146.833,125.5 150.167,125.5 153.5,125.5C 152.432,126.434 151.099,126.768 149.5,126.5C 149.5,127.833 149.5,129.167 149.5,130.5C 154.695,130.179 159.695,130.513 164.5,131.5C 159.056,130.892 154.056,131.558 149.5,133.5C 149.5,137.167 149.5,140.833 149.5,144.5C 149.167,144.5 148.833,144.5 148.5,144.5C 148.5,138.5 148.5,132.5 148.5,126.5C 145.941,126.198 143.607,126.532 141.5,127.5C 141.5,128.5 141.5,129.5 141.5,130.5C 141.5,130.833 141.5,131.167 141.5,131.5C 141.5,135.833 141.5,140.167 141.5,144.5C 140.833,144.167 140.167,143.833 139.5,143.5C 139.672,142.508 139.338,141.842 138.5,141.5C 140.075,139.886 140.741,137.886 140.5,135.5C 138.167,135.5 135.833,135.5 133.5,135.5C 133.5,137.5 133.5,139.5 133.5,141.5C 133.167,141.5 132.833,141.5 132.5,141.5C 132.5,139.167 132.5,136.833 132.5,134.5C 134.833,134.5 137.167,134.5 139.5,134.5C 139.5,133.5 139.5,132.5 139.5,131.5C 135.069,131.231 130.735,131.564 126.5,132.5C 125.244,132.539 124.244,132.039 123.5,131C 113.423,130.809 103.423,130.309 93.5,129.5C 87.7921,127.614 81.7921,126.947 75.5,127.5C 74.596,128.209 74.2627,129.209 74.5,130.5C 73.5,130.5 72.5,130.5 71.5,130.5C 71.7036,128.315 72.3702,126.315 73.5,124.5C 77.6703,118.578 83.3369,114.911 90.5,113.5C 90.8799,111.302 90.2132,109.635 88.5,108.5C 86.6965,107.838 84.6965,107.505 82.5,107.5C 79.1864,107.343 76.1864,108.009 73.5,109.5C 73.1667,109.5 72.8333,109.5 72.5,109.5C 70.3023,109.591 69.9689,108.925 71.5,107.5C 74.7961,103.702 78.2961,100.036 82,96.5C 84.0634,93.4143 83.8967,90.581 81.5,88C 63.8252,87.2782 48.4918,92.7782 35.5,104.5C 34.4265,103.749 34.2599,102.749 35,101.5C 43.2805,82.944 57.1138,76.7774 76.5,83C 84.2637,85.933 89.9303,91.0997 93.5,98.5 Z"/></g>
<g><path style="opacity:1" fill="#fbbbbc" d="M 141.5,131.5 C 143.735,131.205 145.735,131.539 147.5,132.5C 145.833,132.5 144.167,132.5 142.5,132.5C 142.5,136.167 142.5,139.833 142.5,143.5C 144.167,143.5 145.833,143.5 147.5,143.5C 145.735,144.461 143.735,144.795 141.5,144.5C 141.5,140.167 141.5,135.833 141.5,131.5 Z"/></g>
<g><path style="opacity:1" fill="#e0030d" d="M 138.5,141.5 C 136.833,141.5 135.167,141.5 133.5,141.5C 133.5,139.5 133.5,137.5 133.5,135.5C 135.833,135.5 138.167,135.5 140.5,135.5C 140.741,137.886 140.075,139.886 138.5,141.5 Z"/></g>
<g><path style="opacity:1" fill="#fefcfc" d="M 147.5,132.5 C 147.5,136.167 147.5,139.833 147.5,143.5C 145.833,143.5 144.167,143.5 142.5,143.5C 142.5,139.833 142.5,136.167 142.5,132.5C 144.167,132.5 145.833,132.5 147.5,132.5 Z"/></g>
<g><path style="opacity:1" fill="#ffecef" d="M 141.5,127.5 C 143.5,127.5 145.5,127.5 147.5,127.5C 147.5,128.5 147.5,129.5 147.5,130.5C 145.5,130.5 143.5,130.5 141.5,130.5C 141.5,129.5 141.5,128.5 141.5,127.5 Z"/></g>
<g><path style="opacity:1" fill="#fbdad9" d="M 111.5,114.5 C 112.833,114.5 114.167,114.5 115.5,114.5C 115.756,118.269 115.423,121.936 114.5,125.5C 113.5,125.5 112.5,125.5 111.5,125.5C 111.5,121.833 111.5,118.167 111.5,114.5 Z"/></g>
<g><path style="opacity:1" fill="#fee8e7" d="M 124.5,116.5 C 124.5,116.833 124.5,117.167 124.5,117.5C 124.5,119.833 124.5,122.167 124.5,124.5C 123.5,124.5 122.5,124.5 121.5,124.5C 121.662,122.473 121.495,120.473 121,118.5C 120.71,120.92 120.21,123.254 119.5,125.5C 118.5,125.5 117.5,125.5 116.5,125.5C 116.5,122.5 116.5,119.5 116.5,116.5C 119.167,116.5 121.833,116.5 124.5,116.5 Z"/></g>
<g><path style="opacity:1" fill="#cf8b8c" d="M 124.5,117.5 C 125.167,117.5 125.833,117.5 126.5,117.5C 126.5,119.833 126.5,122.167 126.5,124.5C 124.283,125.369 121.95,125.702 119.5,125.5C 120.21,123.254 120.71,120.92 121,118.5C 121.495,120.473 121.662,122.473 121.5,124.5C 122.5,124.5 123.5,124.5 124.5,124.5C 124.5,122.167 124.5,119.833 124.5,117.5 Z"/></g>
<g><path style="opacity:1" fill="#d56f6e" d="M 111.5,114.5 C 111.5,118.167 111.5,121.833 111.5,125.5C 110.5,125.5 109.5,125.5 108.5,125.5C 109.234,124.292 109.567,122.959 109.5,121.5C 107.857,121.48 106.524,122.147 105.5,123.5C 104.167,121.167 104.167,118.833 105.5,116.5C 106.386,117.325 106.719,118.325 106.5,119.5C 107.833,119.5 109.167,119.5 110.5,119.5C 110.567,118.041 110.234,116.708 109.5,115.5C 110.167,115.167 110.833,114.833 111.5,114.5 Z"/></g>
<g><path style="opacity:1" fill="#fbe4e4" d="M 132.5,115.5 C 132.783,116.289 133.283,116.956 134,117.5C 135.992,125.013 133.492,127.346 126.5,124.5C 126.5,122.167 126.5,119.833 126.5,117.5C 127.99,115.72 129.99,115.054 132.5,115.5 Z"/></g>
<g><path style="opacity:1" fill="#cf7271" d="M 115.5,114.5 C 118.61,115.088 121.61,115.755 124.5,116.5C 121.833,116.5 119.167,116.5 116.5,116.5C 116.5,119.5 116.5,122.5 116.5,125.5C 115.833,125.5 115.167,125.5 114.5,125.5C 115.423,121.936 115.756,118.269 115.5,114.5 Z"/></g>
<g><path style="opacity:1" fill="#fde7e7" d="M 109.5,115.5 C 110.234,116.708 110.567,118.041 110.5,119.5C 109.167,119.5 107.833,119.5 106.5,119.5C 106.719,118.325 106.386,117.325 105.5,116.5C 104.167,118.833 104.167,121.167 105.5,123.5C 106.524,122.147 107.857,121.48 109.5,121.5C 109.567,122.959 109.234,124.292 108.5,125.5C 105.612,126.01 103.279,125.344 101.5,123.5C 101.5,120.833 101.5,118.167 101.5,115.5C 104.167,112.833 106.833,112.833 109.5,115.5 Z"/></g>
<g><path style="opacity:1" fill="#d91a19" d="M 67.5,122.5 C 65.4939,121.161 63.8272,119.494 62.5,117.5C 63.1505,114.996 64.8171,113.663 67.5,113.5C 72.5197,111.661 77.6863,110.328 83,109.5C 84.9729,109.309 86.4729,109.976 87.5,111.5C 81.7668,114.402 76.4335,117.902 71.5,122C 70.2068,122.49 68.8734,122.657 67.5,122.5 Z"/></g>
<g><path style="opacity:1" fill="#d6615f" d="M 93.5,98.5 C 95.8896,102.558 96.8896,107.058 96.5,112C 96.3333,114.5 96.1667,117 96,119.5C 95.7216,120.416 95.2216,121.082 94.5,121.5C 95.955,113.751 95.6217,106.084 93.5,98.5 Z"/></g>
<g><path style="opacity:1" fill="#f7bcbc" d="M 88.5,108.5 C 90.2132,109.635 90.8799,111.302 90.5,113.5C 83.3369,114.911 77.6703,118.578 73.5,124.5C 72.8333,124.833 72.1667,125.167 71.5,125.5C 70.5525,124.022 69.2191,123.022 67.5,122.5C 68.8734,122.657 70.2068,122.49 71.5,122C 76.4335,117.902 81.7668,114.402 87.5,111.5C 86.4729,109.976 84.9729,109.309 83,109.5C 77.6863,110.328 72.5197,111.661 67.5,113.5C 66.375,112.348 66.375,111.348 67.5,110.5C 67.56,111.043 67.8933,111.376 68.5,111.5C 70.0255,111.006 71.3588,110.339 72.5,109.5C 72.8333,109.5 73.1667,109.5 73.5,109.5C 78.4635,108.746 83.4635,108.413 88.5,108.5 Z"/></g>
<g><path style="opacity:1" fill="#da7373" d="M 98.5,101.5 C 99.9756,106.066 100.976,110.733 101.5,115.5C 101.5,118.167 101.5,120.833 101.5,123.5C 100.71,122.391 100.21,121.058 100,119.5C 99.7216,120.416 99.2216,121.082 98.5,121.5C 99.8333,114.833 99.8333,108.167 98.5,101.5 Z"/></g>
<g><path style="opacity:1" fill="#fef6f5" d="M 71.5,107.5 C 69.5956,107.738 68.2623,108.738 67.5,110.5C 66.375,111.348 66.375,112.348 67.5,113.5C 64.8171,113.663 63.1505,114.996 62.5,117.5C 63.8272,119.494 65.4939,121.161 67.5,122.5C 69.2191,123.022 70.5525,124.022 71.5,125.5C 70.5592,127.05 69.8925,128.716 69.5,130.5C 69.3404,132.153 68.6737,133.486 67.5,134.5C 66.525,137.311 65.8583,140.311 65.5,143.5C 67.1992,143.34 68.8659,143.506 70.5,144C 71.756,144.417 72.4226,145.25 72.5,146.5C 67.3814,147.103 62.7147,146.436 58.5,144.5C 61.0869,141.99 61.0869,139.323 58.5,136.5C 56.1667,138.167 54.1667,140.167 52.5,142.5C 50.9255,143.631 49.2588,143.798 47.5,143C 42.6736,140.434 39.0069,136.768 36.5,132C 46.4424,124.392 55.4424,115.726 63.5,106C 60.7433,105.416 58.0766,105.75 55.5,107C 47.2368,110.65 38.9035,114.15 30.5,117.5C 30.3347,113.818 30.5014,110.152 31,106.5C 32.857,107.167 34.357,106.5 35.5,104.5C 48.4918,92.7782 63.8252,87.2782 81.5,88C 83.8967,90.581 84.0634,93.4143 82,96.5C 78.2961,100.036 74.7961,103.702 71.5,107.5 Z"/></g>
<g><path style="opacity:1" fill="#fee6e5" d="M 79.5,80.5 C 88.9874,84.6537 95.3207,91.6537 98.5,101.5C 99.8333,108.167 99.8333,114.833 98.5,121.5C 98.7778,123.346 98.1112,124.68 96.5,125.5C 94.8888,124.68 94.2222,123.346 94.5,121.5C 95.2216,121.082 95.7216,120.416 96,119.5C 96.1667,117 96.3333,114.5 96.5,112C 96.8896,107.058 95.8896,102.558 93.5,98.5C 89.9303,91.0997 84.2637,85.933 76.5,83C 57.1138,76.7774 43.2805,82.944 35,101.5C 34.2599,102.749 34.4265,103.749 35.5,104.5C 34.357,106.5 32.857,107.167 31,106.5C 30.5014,110.152 30.3347,113.818 30.5,117.5C 28.4079,105.463 31.7412,94.9626 40.5,86C 42.7343,84.2502 45.0676,82.7502 47.5,81.5C 58.0581,76.6608 68.7248,76.3275 79.5,80.5 Z"/></g>
<g><path style="opacity:1" fill="#cf5753" d="M 71.5,107.5 C 69.9689,108.925 70.3023,109.591 72.5,109.5C 71.3588,110.339 70.0255,111.006 68.5,111.5C 67.8933,111.376 67.56,111.043 67.5,110.5C 68.2623,108.738 69.5956,107.738 71.5,107.5 Z"/></g>
<g><path style="opacity:1" fill="#e36768" d="M 88.5,108.5 C 83.4635,108.413 78.4635,108.746 73.5,109.5C 76.1864,108.009 79.1864,107.343 82.5,107.5C 84.6965,107.505 86.6965,107.838 88.5,108.5 Z"/></g>
<g><path style="opacity:1" fill="#de7371" d="M 79.5,80.5 C 68.7248,76.3275 58.0581,76.6608 47.5,81.5C 52.47,77.8694 58.1367,76.2027 64.5,76.5C 68.5695,76.5039 72.5695,77.0039 76.5,78C 77.9423,78.3768 78.9423,79.2101 79.5,80.5 Z"/></g>
</svg>
